<?xml version="1.0" encoding="UTF-8" standalone="no"?> <!-- Created with Vectornator (http://vectornator.io/) --><!DOCTYPE svg PUBLIC "-//W3C//DTD SVG 1.1//EN" "http://www.w3.org/Graphics/SVG/1.1/DTD/svg11.dtd">
<svg height="100%" stroke-miterlimit="10" style="fill-rule:nonzero;clip-rule:evenodd;stroke-linecap:round;stroke-linejoin:round;" version="1.1" viewBox="0 0 46.8141 77.6387" width="100%" xml:space="preserve" xmlns="http://www.w3.org/2000/svg" xmlns:vectornator="http://vectornator.io" xmlns:xlink="http://www.w3.org/1999/xlink">
<metadata>
<vectornator:setting key="IsTimeLapseWatermarkDisabled" value="false"/>
<vectornator:setting key="UndoHistoryDisabled" value="true"/>
<vectornator:setting key="VNDimensionsVisible" value="true"/>
<vectornator:setting key="VNSnapToGuides" value="true"/>
<vectornator:setting key="WDCMYKEnabledKey" value="false"/>
<vectornator:setting key="WDDisplayWhiteBackground" value="false"/>
<vectornator:setting key="WDDynamicGuides" value="false"/>
<vectornator:setting key="WDGuidesVisible" value="true"/>
<vectornator:setting key="WDIsolateActiveLayer" value="false"/>
<vectornator:setting key="WDOutlineMode" value="false"/>
<vectornator:setting key="WDRulersVisible" value="true"/>
<vectornator:setting key="WDSnapToEdges" value="false"/>
<vectornator:setting key="WDSnapToGrid" value="false"/>
<vectornator:setting key="WDSnapToPoints" value="false"/>
<vectornator:setting key="WDUnits" value="Millimeters"/>
</metadata>
<defs/>
<g id="Layer-1" vectornator:layerName="Layer 1">
<path d="M42.3721 38.0181C42.3721 36.9113 41.9652 35.951 41.1514 35.1372L10.9756 5.1568C10.1943 4.37553 9.25032 3.98489 8.14358 3.98489C6.97172 3.98489 6.00328 4.36739 5.23828 5.13239C4.47328 5.89732 4.09078 6.84946 4.09078 7.98879C4.09078 9.06299 4.48142 10.0233 5.26268 10.8697L32.5576 38.0181L5.26268 65.1665C4.48142 66.0129 4.09078 66.9732 4.09078 68.0474C4.09078 69.1867 4.47328 70.1389 5.23828 70.9038C6.00328 71.6688 6.97172 72.0513 8.14358 72.0513C9.25032 72.0513 10.1943 71.6607 10.9756 70.8794L41.1514 40.899C41.542 40.4758 41.8431 40.0282 42.0547 39.5562C42.2663 39.0842 42.3721 38.5715 42.3721 38.0181Z" fill="#000000" fill-rule="evenodd" opacity="1" stroke="none"/>
</g>
</svg>
