<?xml version="1.0" encoding="UTF-8" standalone="no"?> <!-- Created with Vectornator (http://vectornator.io/) --><!DOCTYPE svg PUBLIC "-//W3C//DTD SVG 1.1//EN" "http://www.w3.org/Graphics/SVG/1.1/DTD/svg11.dtd">
<svg height="100%" stroke-miterlimit="10" style="fill-rule:nonzero;clip-rule:evenodd;stroke-linecap:round;stroke-linejoin:round;" version="1.1" viewBox="0 0 180 99" width="100%" xml:space="preserve" xmlns="http://www.w3.org/2000/svg" xmlns:vectornator="http://vectornator.io" xmlns:xlink="http://www.w3.org/1999/xlink">
<metadata>
<vectornator:setting key="IsTimeLapseWatermarkDisabled" value="false"/>
<vectornator:setting key="UndoHistoryDisabled" value="true"/>
<vectornator:setting key="VNDimensionsVisible" value="true"/>
<vectornator:setting key="VNSnapToGuides" value="true"/>
<vectornator:setting key="WDCMYKEnabledKey" value="false"/>
<vectornator:setting key="WDDisplayWhiteBackground" value="false"/>
<vectornator:setting key="WDDynamicGuides" value="false"/>
<vectornator:setting key="WDGuidesVisible" value="true"/>
<vectornator:setting key="WDIsolateActiveLayer" value="false"/>
<vectornator:setting key="WDOutlineMode" value="false"/>
<vectornator:setting key="WDRulersVisible" value="true"/>
<vectornator:setting key="WDSnapToEdges" value="false"/>
<vectornator:setting key="WDSnapToGrid" value="false"/>
<vectornator:setting key="WDSnapToPoints" value="false"/>
<vectornator:setting key="WDUnits" value="Points"/>
</metadata>
<defs>
<linearGradient gradientTransform="matrix(1 0 0 1 0 0)" gradientUnits="userSpaceOnUse" id="LinearGradient" x1="130.61" x2="167.113" y1="53.0928" y2="53.0928">
<stop offset="0.0110865" stop-color="#7d878a"/>
<stop offset="0.998805" stop-color="#000000"/>
</linearGradient>
<linearGradient gradientTransform="matrix(1 0 0 1 0 0)" gradientUnits="userSpaceOnUse" id="LinearGradient_2" x1="130.688" x2="180" y1="48.4139" y2="48.4139">
<stop offset="0.0110865" stop-color="#7d878a"/>
<stop offset="0.998805" stop-color="#000000"/>
</linearGradient>
<linearGradient gradientTransform="matrix(1 0 0 1 0 0)" gradientUnits="userSpaceOnUse" id="LinearGradient_3" x1="12.8864" x2="49.3887" y1="53.0928" y2="53.0928">
<stop offset="0.0110865" stop-color="#7d878a"/>
<stop offset="0.998805" stop-color="#000000"/>
</linearGradient>
<linearGradient gradientTransform="matrix(1 0 0 1 0 0)" gradientUnits="userSpaceOnUse" id="LinearGradient_4" x1="9.79871e-05" x2="49.3125" y1="48.4139" y2="48.4139">
<stop offset="0.0110865" stop-color="#7d878a"/>
<stop offset="0.998805" stop-color="#000000"/>
</linearGradient>
<clipPath id="TextBounds">
<rect height="60.137" width="95.7135" x="44.2603" y="5.12084"/>
</clipPath>
</defs>
<g id="Untitled" vectornator:layerName="Untitled">
<path d="M55.014 55.3577L56.9551 60.3962L62.2437 60.4452L58.2171 63.7413L59.2206 68.8783L55.014 66.2153L50.8742 68.8783L51.8538 63.7413L47.9189 60.4452L53.0597 60.3962L55.014 55.3577Z" fill="#ff8e00" fill-rule="evenodd" opacity="1" stroke="none"/>
<path d="M72.6752 55.3577L74.6163 60.3962L79.9049 60.4452L75.8782 63.7413L76.8817 68.8783L72.6752 66.2153L68.5353 68.8783L69.5149 63.7413L65.5801 60.4452L70.7208 60.3962L72.6752 55.3577Z" fill="#ff8e00" fill-rule="evenodd" opacity="1" stroke="none"/>
<path d="M90.3353 55.3577L92.2764 60.3962L97.565 60.4452L93.5383 63.7413L94.5419 68.8783L90.3353 66.2153L86.1954 68.8783L87.1751 63.7413L83.2402 60.4452L88.381 60.3962L90.3353 55.3577Z" fill="#ff8e00" fill-rule="evenodd" opacity="1" stroke="none"/>
<path d="M107.996 55.3577L109.938 60.3962L115.226 60.4452L111.199 63.7413L112.203 68.8783L107.996 66.2153L103.857 68.8783L104.836 63.7413L100.901 60.4452L106.042 60.3962L107.996 55.3577Z" fill="#ff8e00" fill-rule="evenodd" opacity="1" stroke="none"/>
<path d="M96.3153 86.6031C96.3153 88.3838 94.9037 89.4975 92.7326 89.4975C90.6152 89.4975 89.2036 88.4171 89.0893 86.7565L90.2993 86.7565C90.4404 87.7902 91.4084 88.4171 92.7998 88.4171C94.1173 88.4171 95.0718 87.7302 95.0718 86.7832C95.0718 85.9762 94.534 85.4426 93.1896 85.1492L92.1142 84.9158C90.1715 84.4956 89.3313 83.6219 89.3313 82.2548C89.3313 80.6675 90.7429 79.5537 92.7527 79.5537C94.6886 79.5537 96.0868 80.7008 96.1405 82.3348L94.9306 82.3348C94.8231 81.281 93.9828 80.6341 92.7191 80.6341C91.5092 80.6341 90.5748 81.221 90.5748 82.2014C90.5748 82.9617 91.0924 83.4819 92.4166 83.7687L93.4921 84.0021C95.5154 84.4423 96.3153 85.2426 96.3153 86.6031ZM62.0517 89.3375L63.0263 86.5831L66.8847 86.5831L67.8593 89.3375L69.1298 89.3375L65.5538 79.7138L64.3573 79.7138L60.7812 89.3375L62.0517 89.3375ZM66.5282 85.5626L63.3824 85.5626L64.9352 81.1742L64.9755 81.1742L66.5282 85.5626ZM71.5705 88.2103L71.5705 91.6516L70.4009 91.6516L70.4009 82.4014L71.51 82.4014L71.51 83.5751L71.5369 83.5751C71.9671 82.7948 72.7804 82.2813 73.7954 82.2813C75.5767 82.2813 76.7866 83.6952 76.7866 85.8694C76.7866 88.0435 75.5834 89.4574 73.8223 89.4574C72.8207 89.4574 72.0141 88.9706 71.5974 88.2103L71.5705 88.2103ZM73.567 88.4371C72.3706 88.4371 71.5639 87.4167 71.5639 85.8694C71.5639 84.3288 72.3706 83.3017 73.567 83.3017C74.8106 83.3017 75.5903 84.3021 75.5903 85.8694C75.5903 87.4433 74.8106 88.4371 73.567 88.4371ZM79.476 88.2103L79.476 91.6516L78.3064 91.6516L78.3064 82.4014L79.4155 82.4014L79.4155 83.5751L79.4424 83.5751C79.8726 82.7948 80.686 82.2813 81.701 82.2813C83.4823 82.2813 84.6922 83.6952 84.6922 85.8694C84.6922 88.0435 83.489 89.4574 81.7279 89.4574C80.7263 89.4574 79.9197 88.9706 79.5029 88.2103L79.476 88.2103ZM81.4723 88.4371C80.2758 88.4371 79.4692 87.4167 79.4692 85.8694C79.4692 84.3288 80.2758 83.3017 81.4723 83.3017C82.7158 83.3017 83.4956 84.3021 83.4956 85.8694C83.4956 87.4433 82.7158 88.4371 81.4723 88.4371ZM100.046 89.3907C100.322 89.3907 100.645 89.3707 100.786 89.3374L100.786 88.3637C100.705 88.377 100.436 88.397 100.302 88.397C99.7037 88.397 99.4348 88.1102 99.4348 87.4767L99.4348 83.3551L100.793 83.3551L100.793 82.4014L99.4348 82.4014L99.4348 80.7274L98.2652 80.7274L98.2652 82.4014L97.2233 82.4014L97.2233 83.3551L98.2652 83.3551L98.2652 87.5367C98.2652 88.8705 98.7626 89.3907 100.046 89.3907ZM108.308 85.8694C108.308 88.0769 107.004 89.4574 105.075 89.4574C103.139 89.4574 101.835 88.0769 101.835 85.8694C101.835 83.6552 103.139 82.2813 105.075 82.2813C107.004 82.2813 108.308 83.6552 108.308 85.8694ZM105.075 88.4371C103.838 88.4371 103.025 87.5034 103.025 85.8694C103.025 84.2354 103.838 83.3017 105.075 83.3017C106.312 83.3017 107.119 84.2354 107.119 85.8694C107.119 87.5034 106.312 88.4371 105.075 88.4371ZM110.997 85.0157L110.997 89.3374L109.828 89.3374L109.828 82.4014L110.93 82.4014L110.93 83.5351L110.957 83.5351C111.186 82.7682 111.831 82.2813 112.651 82.2813C112.819 82.2813 112.968 82.3045 113.068 82.3199C113.088 82.323 113.106 82.3258 113.122 82.328L113.122 83.4551C113.027 83.4218 112.779 83.3884 112.496 83.3884C111.589 83.3884 110.997 84.0353 110.997 85.0157ZM116.954 89.4574C118.479 89.4574 119.663 88.5637 119.864 87.3499L118.715 87.3499C118.52 88.0035 117.868 88.4504 116.981 88.4504C115.724 88.4504 114.937 87.5767 114.937 86.2495L114.937 86.1828L119.952 86.1828L119.952 85.7427C119.952 83.6418 118.789 82.2813 116.9 82.2813C114.971 82.2813 113.734 83.7419 113.734 85.896C113.734 88.0769 114.951 89.4574 116.954 89.4574ZM114.944 85.2757L118.742 85.2757C118.715 84.1153 117.982 83.2883 116.88 83.2883C115.784 83.2883 115.018 84.122 114.944 85.2757Z" fill="#ffffff" fill-rule="evenodd" opacity="1" stroke="none"/>
<g opacity="1">
<path d="M130.61 95.8707C172.281 79.8062 176.757 45.6423 143.936 8.10413C199.987 70.3651 137.656 95.847 130.61 98.0815C130.61 97.2448 130.61 97.2468 130.61 95.8707Z" fill="url(#LinearGradient)" fill-rule="evenodd" opacity="1" stroke="none"/>
<path d="M150.7 7.37609C150.688 10.5426 150.163 13.7953 149.11 14.4938C149.034 14.3446 148.87 14.17 148.704 13.9932L148.704 13.9932C148.485 13.7606 148.263 13.5243 148.235 13.3373C148.082 12.3085 147.575 11.5233 147.031 10.6814C146.351 9.62941 145.614 8.48876 145.439 6.67323C145.316 5.39266 145.439 1.88261 146.723 0C148.004 1.20826 150.712 4.20959 150.7 7.37609ZM155.357 22.5619C156.467 21.9578 157.529 18.8673 157.817 15.7139C158.057 13.0844 156.299 10.7149 155.233 9.2781C155.021 8.99181 154.836 8.74254 154.7 8.53562C152.394 9.73743 152.372 13.1651 152.383 14.4515C152.398 16.2753 153.033 17.4758 153.619 18.583C154.087 19.4691 154.524 20.2954 154.587 21.3337C154.598 21.5224 154.799 21.7771 154.997 22.0279C155.147 22.2184 155.295 22.4067 155.357 22.5619ZM165.127 24.874C164.125 28.3473 162.277 31.5806 160.909 32.0148C160.873 31.8272 160.748 31.5836 160.622 31.3369C160.456 31.0124 160.287 30.6827 160.315 30.4686C160.469 29.2905 160.16 28.268 159.828 27.1717C159.414 25.8017 158.966 24.3163 159.341 22.2675C159.607 20.8225 160.37 16.9832 163.199 16.1407C163.306 16.4026 163.459 16.7226 163.634 17.0902L163.634 17.0903C164.512 18.9353 165.961 21.9778 165.127 24.874ZM164.644 41.6328C166.066 41.4424 168.449 38.5789 170.039 35.3321C171.364 32.6246 170.466 29.377 169.922 27.4076L169.922 27.4075L169.921 27.4069C169.813 27.0148 169.719 26.6734 169.659 26.3971C166.726 26.7361 165.307 30.3846 164.795 31.7617C164.068 33.7142 164.252 35.2548 164.422 36.6758C164.557 37.813 164.684 38.8735 164.327 40.007C164.263 40.213 164.372 40.567 164.479 40.9154L164.479 40.9155C164.561 41.1803 164.641 41.4419 164.644 41.6328ZM173.273 45.0056C171.092 47.8899 168.206 50.2466 166.773 50.1624C166.807 49.9744 166.778 49.7023 166.749 49.4268C166.71 49.0643 166.67 48.696 166.773 48.5061C167.34 47.4614 167.418 46.3962 167.502 45.2541C167.607 43.8269 167.721 42.2795 168.807 40.5014C169.573 39.2472 171.663 35.9362 174.607 36.1624C174.613 36.4452 174.64 36.7986 174.672 37.2044L174.672 37.2045C174.83 39.2415 175.091 42.6006 173.273 45.0056ZM166.575 59.478C168.032 59.9898 171.503 58.47 174.616 56.1335C177.211 54.1852 177.938 50.6337 178.378 48.4801L178.378 48.4799L178.378 48.4795C178.466 48.0507 178.543 47.6772 178.62 47.383C175.642 46.2765 172.413 48.5872 171.332 50.1513C170.008 52.0683 169.266 53.9577 168.621 55.5993C167.995 57.1928 167.46 58.5528 166.575 59.478ZM172.805 65.7712C169.017 67.1848 165.938 66.0346 165.503 65.0322C166.582 64.6131 167.54 63.7028 168.661 62.6363C169.817 61.5376 171.147 60.2731 172.965 59.2089C174.448 58.3406 177.979 57.6839 180 59.7327C179.663 59.9956 179.248 60.4741 178.741 61.0579L178.741 61.0579C177.438 62.5582 175.532 64.7536 172.805 65.7712ZM162.368 72.513C162.61 73.6175 165.518 75.3882 169.663 74.6899C172.646 74.1873 175.03 72.3266 176.659 71.0551C177.293 70.5603 177.812 70.1548 178.209 69.9531C176.559 67.475 172.828 67.4536 171.142 68.0472C169.076 68.7747 167.466 69.8011 166.068 70.693C164.711 71.5587 163.552 72.2976 162.368 72.513ZM162.861 83.6098C158.666 83.8715 155.96 81.8069 155.834 80.6832C157.035 80.5926 158.264 79.9787 159.705 79.2595L159.705 79.2594C161.189 78.5185 162.897 77.6657 165.028 77.1579C166.767 76.7436 170.475 77.1545 171.856 79.7913C171.441 79.9504 170.882 80.2995 170.2 80.7254C168.447 81.8199 165.881 83.4215 162.861 83.6098ZM150.073 86.2733C149.953 87.3094 151.957 89.7258 155.785 90.3599C158.54 90.8164 161.18 89.9083 162.984 89.2878C163.686 89.0464 164.262 88.8484 164.668 88.7914C163.975 86.1352 160.725 84.9976 159.075 85.0097C157.052 85.0245 155.339 85.4371 153.85 85.7956C152.405 86.1437 151.172 86.4407 150.073 86.2733ZM142.71 91.5428C142.446 92.5519 144.094 95.2236 147.796 96.3836C150.461 97.2186 153.202 96.6864 155.075 96.3228C155.804 96.1812 156.401 96.0653 156.811 96.0653C156.495 93.3385 153.435 91.7602 151.799 91.5428C149.795 91.2763 148.041 91.4467 146.517 91.5948C145.037 91.7386 143.774 91.8613 142.71 91.5428ZM139.052 2.11504C136.737 0.446007 133.478 0.690145 131.503 0.838057C131.198 0.860922 130.923 0.881487 130.688 0.89233C131.151 3.12276 133.593 5.64951 134.601 6.4506C137.173 8.49527 139.545 8.87468 144.544 8.87467C142.637 5.11203 141.726 4.04206 139.052 2.11504ZM144.237 85.0541C144.214 88.5521 142.346 90.6772 141.406 90.7153C141.4 89.7506 140.954 88.9389 140.424 87.9739C139.836 86.904 139.144 85.6457 138.834 83.7816C138.59 82.3138 139.316 78.354 141.583 77.3628C142.891 78.5462 144.261 81.5562 144.237 85.0541ZM148.577 86.5357C149.912 85.1795 150.705 82.063 150.51 78.8014C150.315 75.5399 148.554 73.5738 147.051 72.4086C144.904 75.6383 145.28 78.9549 145.527 80.364C145.945 82.74 146.903 84.0995 147.776 85.3377C148.059 85.7396 148.334 86.1287 148.577 86.5357ZM155.138 72.0064C156.352 74.9368 156.615 78.0439 155.824 79.7065C155.471 79.4098 155.096 79.139 154.709 78.8593L154.709 78.8592C153.517 77.9974 152.207 77.0511 151.07 75.0028C150.396 73.7881 149 70.8639 149.94 67.2282C151.687 67.8252 153.924 69.076 155.138 72.0064ZM160.126 73.7194C160.143 73.6492 160.167 73.584 160.191 73.5181C160.23 73.41 160.269 73.3003 160.281 73.1638C160.439 71.3218 159.983 68.9782 158.428 66.7101C156.687 64.1717 153.912 62.4255 152.133 62.2135C151.968 65.8611 154.086 68.6122 154.97 69.6297C156.944 71.9024 158.517 72.8612 160.126 73.7194ZM163.75 65.8393C163.738 65.9041 163.726 65.9684 163.726 66.0368C163.303 65.9228 162.898 65.8436 162.494 65.7646L162.494 65.7646L162.494 65.7645L162.494 65.7645L162.494 65.7645L162.494 65.7645L162.494 65.7644C161.218 65.5145 159.947 65.2656 158.097 63.9206C157.007 63.1278 153.837 59.9615 153.176 56.3703C156.894 56.3703 158.487 57.8028 160.525 59.9082C162.577 62.0283 163.376 64.164 163.752 65.4607C163.794 65.606 163.772 65.7234 163.75 65.8393ZM165.247 58.7967L165.247 58.7966C165.26 58.6796 165.274 58.5609 165.222 58.4189C164.756 57.1516 163.586 54.4564 161.39 52.4845C159.21 50.5262 157.91 50.155 154.037 50.0875C154.947 53.6239 158.33 56.5617 159.473 57.2765C161.413 58.4894 162.698 58.6491 163.988 58.8095C164.397 58.8603 164.806 58.9111 165.236 58.9954C165.232 58.9272 165.239 58.8623 165.247 58.7969L165.247 58.7968L165.247 58.7968L165.247 58.7967L165.247 58.7967ZM165.621 49.8147C165.619 49.8858 165.617 49.9563 165.628 50.0294C165.156 49.9787 164.71 49.9621 164.264 49.9455C162.857 49.8931 161.455 49.8408 159.247 48.7173C157.946 48.0551 154.015 45.2118 152.696 41.4952C156.88 41.2079 158.319 41.4859 160.858 43.3883C163.414 45.3038 164.934 48.0921 165.558 49.411C165.627 49.5588 165.624 49.6876 165.621 49.8147ZM163.993 40.6488L163.993 40.6488C163.978 40.5225 163.963 40.3945 163.874 40.2579L163.837 40.2028C163.029 38.9715 161.578 36.7604 158.821 35.2419C156.042 33.711 154.576 33.711 150.035 34.207C151.859 37.704 156.147 39.9733 157.528 40.4482C159.871 41.2538 161.266 41.1106 162.667 40.9669C163.111 40.9214 163.555 40.8759 164.03 40.8603C164.009 40.7896 164.001 40.7195 163.993 40.6488ZM160.217 32.3988C160.228 32.4653 160.239 32.5313 160.263 32.5974C159.826 32.6348 159.384 32.7015 158.926 32.7708C157.432 32.9967 155.761 33.2493 153.491 32.5974C152.163 32.2161 148.609 30.2113 146.713 26.9879C150.978 26.2921 152.363 26.2193 155.064 27.5319C157.744 28.8339 159.224 30.8571 160.049 31.9838L160.085 32.0342C160.177 32.1592 160.197 32.2798 160.217 32.3988ZM155.424 23.528C155.391 23.4739 155.369 23.4174 155.347 23.3605C155.307 23.2588 155.266 23.1557 155.162 23.062L155.12 23.0242C154.182 22.1797 152.498 20.6631 149.894 20.0103C147.269 19.3522 146.063 19.6758 142.44 21.0908C144.716 23.5935 148.746 24.532 149.987 24.6215C152.092 24.7734 153.208 24.3463 154.328 23.9174L154.328 23.9174C154.682 23.7817 155.037 23.6458 155.424 23.528ZM150.615 16.2199C150.64 16.2847 150.666 16.3489 150.703 16.4106C150.261 16.5449 149.855 16.6999 149.45 16.8547C148.17 17.3437 146.895 17.8307 144.489 17.6596C143.071 17.5587 138.467 16.4941 135.868 13.6478C140.01 12.0343 141.387 11.6649 144.386 12.4117C147.362 13.1525 149.285 14.8771 150.356 15.8374C150.372 15.8519 150.388 15.8662 150.404 15.8803C150.523 15.9869 150.569 16.1042 150.615 16.2199Z" fill="url(#LinearGradient_2)" fill-rule="evenodd" opacity="1" stroke="none"/>
</g>
<g opacity="1">
<path d="M49.3887 95.8707C7.71796 79.8062 3.24166 45.6423 36.0631 8.10413C-19.9883 70.3651 42.3433 95.847 49.3887 98.0815C49.3887 97.2448 49.3887 97.2468 49.3887 95.8707Z" fill="url(#LinearGradient_3)" fill-rule="evenodd" opacity="1" stroke="none"/>
<path d="M29.2998 7.37609C29.3119 10.5426 29.8369 13.7953 30.8901 14.4938C30.9654 14.3446 31.1297 14.17 31.296 13.9932L31.296 13.9932C31.5148 13.7606 31.7371 13.5243 31.7649 13.3373C31.9179 12.3085 32.4253 11.5233 32.9693 10.6814C33.6492 9.62941 34.3863 8.48876 34.5609 6.67323C34.684 5.39266 34.5609 1.88261 33.2768 0C31.9959 1.20826 29.2878 4.20959 29.2998 7.37609ZM24.6426 22.5619C23.5324 21.9578 22.4712 18.8673 22.1829 15.7139C21.9425 13.0844 23.7005 10.7149 24.7665 9.2781C24.9789 8.99181 25.1639 8.74254 25.3001 8.53562C27.6058 9.73743 27.6279 13.1651 27.617 14.4515C27.6015 16.2753 26.9667 17.4758 26.3812 18.583C25.9127 19.4691 25.4758 20.2954 25.4131 21.3337C25.4017 21.5224 25.2009 21.7771 25.0032 22.0279C24.853 22.2184 24.7046 22.4067 24.6426 22.5619ZM14.8732 24.874C15.8742 28.3473 17.7232 31.5806 19.0908 32.0148C19.1265 31.8272 19.2514 31.5836 19.3778 31.3369C19.5441 31.0124 19.713 30.6827 19.685 30.4686C19.5311 29.2905 19.84 28.268 20.1713 27.1717C20.5853 25.8017 21.0341 24.3163 20.6583 22.2675C20.3932 20.8225 19.6299 16.9832 16.8006 16.1407C16.6934 16.4026 16.541 16.7226 16.366 17.0902L16.3659 17.0903C15.4873 18.9353 14.0384 21.9778 14.8732 24.874ZM15.3561 41.6328C13.9338 41.4424 11.5508 38.5789 9.96114 35.3321C8.6356 32.6246 9.53358 29.377 10.0781 27.4076L10.0781 27.4075L10.0783 27.4069C10.1867 27.0148 10.2811 26.6734 10.3411 26.3971C13.2738 26.7361 14.693 30.3846 15.2053 31.7617C15.9315 33.7142 15.7477 35.2548 15.5782 36.6758C15.4426 37.813 15.3161 38.8735 15.6725 40.007C15.7373 40.213 15.6282 40.567 15.5208 40.9154L15.5208 40.9155C15.4392 41.1803 15.3586 41.4419 15.3561 41.6328ZM6.72694 45.0056C8.90761 47.8899 11.7938 50.2466 13.2264 50.1624C13.1924 49.9744 13.2215 49.7023 13.2511 49.4268C13.2899 49.0643 13.3293 48.696 13.2264 48.5061C12.66 47.4614 12.5816 46.3962 12.4975 45.2541C12.3925 43.8269 12.2786 42.2795 11.1927 40.5014C10.4268 39.2472 8.33674 35.9362 5.39316 36.1624C5.38703 36.4452 5.35957 36.7986 5.32803 37.2044L5.32802 37.2045C5.16968 39.2415 4.90858 42.6006 6.72694 45.0056ZM13.4252 59.478C11.9681 59.9898 8.49647 58.47 5.38431 56.1335C2.78922 54.1852 2.06237 50.6337 1.62162 48.4801L1.62158 48.4799L1.6215 48.4795C1.53373 48.0507 1.4573 47.6772 1.37971 47.383C4.358 46.2765 7.58738 48.5872 8.66771 50.1513C9.99181 52.0683 10.7341 53.9577 11.3791 55.5993C12.0051 57.1928 12.5395 58.5528 13.4252 59.478ZM7.19528 65.7712C10.9833 67.1848 14.0621 66.0346 14.4973 65.0322C13.4176 64.6131 12.4603 63.7028 11.3386 62.6363C10.1831 61.5376 8.85321 60.2731 7.03546 59.2089C5.55234 58.3406 2.02128 57.6839 9.79871e-05 59.7327C0.336989 59.9956 0.752486 60.4741 1.25936 61.0579L1.2594 61.0579C2.56208 62.5582 4.46835 64.7536 7.19528 65.7712ZM17.6321 72.513C17.3896 73.6175 14.4821 75.3882 10.3371 74.6899C7.35324 74.1873 4.96958 72.3266 3.34068 71.0551C2.70685 70.5603 2.1873 70.1548 1.79113 69.9531C3.44034 67.475 7.17151 67.4536 8.85753 68.0472C10.924 68.7747 12.5333 69.8011 13.9316 70.693C15.289 71.5587 16.4474 72.2976 17.6321 72.513ZM17.1387 83.6098C21.334 83.8715 24.0404 81.8069 24.1659 80.6832C22.9652 80.5926 21.7358 79.9787 20.2952 79.2594C18.8113 78.5185 17.1034 77.6657 14.9721 77.1579C13.2332 76.7436 9.52471 77.1545 8.14387 79.7913C8.55897 79.9504 9.11811 80.2995 9.80025 80.7254C11.5533 81.8199 14.1186 83.4215 17.1387 83.6098ZM29.9267 86.2733C30.0474 87.3094 28.0428 89.7258 24.2154 90.3599C21.4601 90.8164 18.82 89.9083 17.0158 89.2878C16.3138 89.0464 15.7383 88.8484 15.3319 88.7914C16.0254 86.1352 19.2752 84.9976 20.9252 85.0097C22.9475 85.0245 24.6609 85.4371 26.1496 85.7956C27.5946 86.1437 28.828 86.4407 29.9267 86.2733ZM37.2904 91.5428C37.5544 92.5519 35.9059 95.2236 32.2041 96.3836C29.5392 97.2186 26.7983 96.6864 24.9252 96.3228C24.1963 96.1812 23.5989 96.0653 23.1885 96.0653C23.5052 93.3385 26.5649 91.7602 28.2005 91.5428C30.2052 91.2763 31.9594 91.4467 33.4835 91.5948C34.963 91.7386 36.2257 91.8613 37.2904 91.5428ZM40.9477 2.11504C43.2632 0.446007 46.5225 0.690145 48.4971 0.838057C48.8023 0.860922 49.0769 0.881487 49.3125 0.89233C48.8487 3.12276 46.4065 5.64951 45.3988 6.4506C42.8267 8.49527 40.4555 8.87468 35.4558 8.87467C37.3628 5.11203 38.2742 4.04206 40.9477 2.11504ZM35.7625 85.0541C35.7856 88.5521 37.6542 90.6772 38.594 90.7153C38.6002 89.7506 39.0462 88.9389 39.5764 87.9739C40.1642 86.904 40.8555 85.6457 41.1657 83.7816C41.41 82.3138 40.6843 78.354 38.4167 77.3628C37.1092 78.5462 35.7394 81.5562 35.7625 85.0541ZM31.4224 86.5357C30.0877 85.1795 29.2952 82.063 29.49 78.8014C29.6848 75.5399 31.446 73.5738 32.9492 72.4086C35.0957 75.6383 34.7202 78.9549 34.4726 80.364C34.0552 82.74 33.0968 84.0995 32.224 85.3377C31.9406 85.7396 31.6663 86.1287 31.4224 86.5357ZM24.8617 72.0064C23.6479 74.9368 23.3844 78.0439 24.1764 79.7065C24.5289 79.4098 24.9036 79.139 25.2907 78.8593L25.2908 78.8592C26.4833 77.9974 27.7928 77.0511 28.9294 75.0028C29.6035 73.7881 31.0003 70.8639 30.0596 67.2282C28.3128 67.8252 26.0755 69.076 24.8617 72.0064ZM19.8737 73.7194C19.8568 73.6492 19.8332 73.584 19.8094 73.5181C19.7702 73.41 19.7305 73.3003 19.7188 73.1638C19.5609 71.3218 20.0171 68.9782 21.5722 66.7101C23.3127 64.1717 26.088 62.4255 27.8671 62.2135C28.0322 65.8611 25.914 68.6122 25.0302 69.6297C23.0559 71.9024 21.4831 72.8612 19.8737 73.7194ZM16.2494 65.8393C16.2614 65.9041 16.2734 65.9684 16.274 66.0368C16.6973 65.9228 17.1016 65.8436 17.5053 65.7646L17.5054 65.7646L17.5055 65.7645L17.5056 65.7645L17.5056 65.7645L17.5057 65.7645L17.5058 65.7644C18.782 65.5145 20.0529 65.2656 21.9029 63.9206C22.9932 63.1278 26.1628 59.9615 26.8234 56.3703C23.1059 56.3703 21.5133 57.8028 19.4752 59.9082C17.423 62.0283 16.624 64.164 16.2481 65.4607C16.206 65.606 16.2278 65.7234 16.2494 65.8393ZM14.7528 58.7967L14.7528 58.7966C14.7394 58.6796 14.7258 58.5609 14.778 58.4189C15.2435 57.1516 16.414 54.4564 18.6092 52.4845C20.7894 50.5262 22.0899 50.155 25.9623 50.0875C25.0525 53.6239 21.6695 56.5617 20.5265 57.2765C18.5871 58.4894 17.3019 58.6491 16.0114 58.8095C15.6029 58.8603 15.1939 58.9111 14.7635 58.9954C14.7677 58.9272 14.7602 58.8623 14.7528 58.7969L14.7528 58.7968L14.7528 58.7968L14.7528 58.7967L14.7528 58.7967ZM14.3791 49.8147C14.3809 49.8858 14.3827 49.9563 14.3717 50.0294C14.844 49.9787 15.2901 49.9621 15.7356 49.9455C17.1431 49.8931 18.5449 49.8408 20.7529 48.7173C22.0543 48.0551 25.9845 45.2118 27.3036 41.4952C23.1196 41.2079 21.6812 41.4859 19.1422 43.3883C16.5856 45.3038 15.0655 48.0921 14.4423 49.411C14.3725 49.5588 14.3758 49.6876 14.3791 49.8147ZM16.0074 40.6488L16.0074 40.6488C16.0219 40.5225 16.0366 40.3945 16.1263 40.2579L16.1624 40.2028C16.9707 38.9715 18.422 36.7604 21.179 35.2419C23.9584 33.711 25.424 33.711 29.9653 34.207C28.1412 37.704 23.8531 39.9733 22.4721 40.4482C20.1291 41.2538 18.7336 41.1106 17.3325 40.9669C16.8891 40.9214 16.445 40.8759 15.9702 40.8603C15.9912 40.7896 15.9993 40.7195 16.0074 40.6488ZM19.7827 32.3988C19.7715 32.4653 19.7604 32.5313 19.737 32.5974C20.174 32.6348 20.6153 32.7015 21.0733 32.7708C22.5676 32.9967 24.2386 33.2493 26.5091 32.5974C27.8372 32.2161 31.3906 30.2113 33.2867 26.9879C29.0213 26.2921 27.6367 26.2193 24.9355 27.5319C22.256 28.8339 20.7756 30.8571 19.9512 31.9838L19.9143 32.0342C19.8228 32.1592 19.8026 32.2798 19.7827 32.3988ZM24.5756 23.528C24.6087 23.4739 24.6309 23.4174 24.6532 23.3605C24.6932 23.2588 24.7337 23.1557 24.8378 23.062L24.8798 23.0242C25.8178 22.1797 27.5021 20.6631 30.1063 20.0103C32.7314 19.3522 33.9365 19.6758 37.5603 21.0908C35.2838 23.5935 31.2541 24.532 30.0132 24.6215C27.9078 24.7734 26.7922 24.3463 25.6721 23.9174L25.6721 23.9174C25.3175 23.7817 24.9626 23.6458 24.5756 23.528ZM29.3852 16.2199C29.3597 16.2847 29.3344 16.3489 29.2966 16.4106C29.7389 16.5449 30.1447 16.6999 30.5499 16.8547C31.8302 17.3437 33.1053 17.8307 35.5111 17.6596C36.929 17.5587 41.533 16.4941 44.1322 13.6478C39.9901 12.0343 38.6128 11.6649 35.6135 12.4117C32.6383 13.1525 30.7149 14.8771 29.6437 15.8374C29.6276 15.8519 29.6116 15.8662 29.5958 15.8803C29.4769 15.9869 29.4307 16.1042 29.3852 16.2199Z" fill="url(#LinearGradient_4)" fill-rule="evenodd" opacity="1" stroke="none"/>
</g>
<path d="M125.444 55.3961L127.386 60.4346L132.674 60.4836L128.647 63.7797L129.651 68.9167L125.444 66.2537L121.305 68.9167L122.284 63.7797L118.349 60.4836L123.49 60.4346L125.444 55.3961Z" fill="#ff8e00" fill-rule="evenodd" opacity="1" stroke="none"/>
<g fill="#ffffff" opacity="1" stroke="none">
<path clip-path="url(#TextBounds)" d="M73.3883 47.1208L78.6641 47.1208L78.6641 41.1586L82.8633 41.1586L82.8633 36.6277L78.6641 36.6277L78.6641 16.1189L70.7723 16.1189C69.9198 17.4726 69.0638 18.8275 68.2042 20.1835C67.3446 21.5394 66.4874 22.8955 65.6327 24.2516C64.7779 25.6077 63.9207 26.9626 63.0611 28.3163C62.2015 29.67 61.3419 31.0249 60.4823 32.3809C59.6227 33.7369 58.7667 35.0918 57.9142 36.4458L57.9142 41.1586L73.3883 41.1586L73.3883 47.1208ZM62.8882 36.7436L62.8882 36.6032C63.5844 35.5142 64.2796 34.4277 64.9737 33.3435C65.6678 32.2593 66.3655 31.1716 67.0667 30.0804C67.768 28.9892 68.4656 27.9014 69.1596 26.8173C69.8536 25.7331 70.5476 24.6489 71.2418 23.5647C71.9359 22.4806 72.631 21.394 73.3272 20.305L73.4699 20.305L73.4699 36.7436L62.8882 36.7436Z" fill-rule="evenodd"/>
<path clip-path="url(#TextBounds)" d="M89.5673 47.4626C90.4363 47.4626 91.1707 47.1628 91.7703 46.5631C92.37 45.9634 92.6698 45.2291 92.6698 44.3601C92.6698 43.4911 92.37 42.7568 91.7703 42.1573C91.1707 41.5577 90.4363 41.258 89.5673 41.258C88.6983 41.258 87.9641 41.5577 87.3645 42.1573C86.765 42.7568 86.4652 43.4911 86.4652 44.3601C86.4652 45.2291 86.765 45.9634 87.3645 46.5631C87.9641 47.1628 88.6983 47.4626 89.5673 47.4626Z" fill-rule="evenodd"/>
<path clip-path="url(#TextBounds)" d="M108.808 15.5895C106.575 15.5895 104.587 16.05 102.845 16.9709C101.102 17.8918 99.7287 19.1583 98.7241 20.7704C97.7195 22.3825 97.2172 24.2305 97.2172 26.3142L97.2172 26.3572C97.2172 28.3013 97.6512 30.0377 98.5192 31.5665C99.3871 33.0952 100.587 34.2968 102.118 35.1712C103.649 36.0455 105.405 36.4827 107.386 36.4827C108.789 36.4827 110.059 36.2628 111.193 35.8231C112.328 35.3833 113.296 34.7886 114.097 34.0389C114.897 33.2892 115.503 32.4423 115.914 31.4983L116.371 31.4983L116.371 26.2417L115.069 26.2417L115.069 26.2699C115.069 27.4198 114.795 28.4423 114.247 29.3375C113.699 30.2327 112.953 30.9342 112.01 31.4421C111.068 31.95 110.002 32.204 108.814 32.204C107.639 32.204 106.587 31.9476 105.659 31.4347C104.731 30.9219 104 30.2119 103.466 29.3048C102.933 28.3976 102.666 27.357 102.666 26.183L102.666 26.14C102.666 25.0134 102.944 23.995 103.499 23.0849C104.054 22.1747 104.802 21.4523 105.743 20.9176C106.683 20.383 107.728 20.1157 108.878 20.1157C110.042 20.1157 111.092 20.3878 112.028 20.9322C112.963 21.4766 113.704 22.2099 114.25 23.1322C114.796 24.0545 115.069 25.091 115.069 26.2417L116.027 31.3741C116.027 31.5628 116.026 31.7489 116.023 31.9326C116.021 32.1162 116.013 32.3023 115.999 32.491C115.928 34.436 115.633 36.2154 115.115 37.8292C114.597 39.443 113.817 40.7314 112.776 41.6944C111.735 42.6574 110.379 43.1389 108.709 43.1389C107.785 43.1389 106.96 42.9932 106.233 42.7019C105.506 42.4107 104.89 42.0011 104.385 41.4733C103.88 40.9455 103.487 40.3317 103.209 39.6319L103.13 39.4294L97.6334 39.4294L97.6841 39.6611C98.0097 41.2241 98.6769 42.6051 99.6857 43.8042C100.694 45.0033 101.969 45.9441 103.51 46.6265C105.05 47.309 106.773 47.6502 108.679 47.6502C111.319 47.6502 113.58 46.9997 115.464 45.6985C117.347 44.3974 118.794 42.5239 119.806 40.0782C120.817 37.6324 121.323 34.6987 121.323 31.2771L121.323 31.2342C121.323 28.5139 120.995 26.1691 120.34 24.1997C119.685 22.2303 118.78 20.6089 117.625 19.3355C116.47 18.0621 115.141 17.1194 113.636 16.5075C112.131 15.8955 110.522 15.5895 108.808 15.5895Z" fill-rule="evenodd"/>
</g>
</g>
</svg>
